<?xml version="1.0" encoding="iso-8859-1"?>
<!-- Generator: Adobe Illustrator 19.0.0, SVG Export Plug-In . SVG Version: 6.00 Build 0)  -->
<svg version="1.1" id="Capa_1" xmlns="http://www.w3.org/2000/svg" xmlns:xlink="http://www.w3.org/1999/xlink" x="0px" y="0px"
	 viewBox="0 0 512 512" style="enable-background:new 0 0 512 512;" xml:space="preserve">
<g>
	<g>
		<g>
			<path d="M127.997,85.333h192c5.888,0,10.667-4.779,10.667-10.667V53.333c0-17.643-14.357-32-32-32h-37.845
				C253.288,8.32,239.315,0,223.997,0s-29.291,8.32-36.821,21.333h-37.845c-17.643,0-32,14.357-32,32v21.333
				C117.331,80.555,122.109,85.333,127.997,85.333z"/>
			<path d="M410.685,260.459c3.285-1.899,5.312-5.419,5.312-9.216V74.667c0-17.643-14.357-32-32-32h-21.333
				c-5.888,0-10.667,4.779-10.667,10.667v21.333c0,17.643-14.357,32-32,32h-192c-17.643,0-32-14.357-32-32V53.333
				c0-5.888-4.779-10.667-10.667-10.667H63.997c-17.643,0-32,14.357-32,32V480c0,17.643,14.357,32,32,32h149.333
				c5.888,0,10.667-4.779,10.667-10.667v-42.667c0-8.427,3.413-16.661,9.365-22.635l170.667-170.667
				C405.757,263.659,407.869,262.101,410.685,260.459z"/>
			<path d="M476.883,323.115l-42.667-42.667c-4.16-4.16-10.923-4.16-15.083,0l-35.115,35.115l57.749,57.749l35.115-35.115
				C481.043,334.037,481.043,327.296,476.883,323.115z"/>
			<path d="M248.445,451.115c-1.984,2.005-3.115,4.715-3.115,7.552v42.667c0,5.888,4.779,10.667,10.667,10.667h42.667
				c2.837,0,5.547-1.131,7.552-3.115l120.448-120.448l-57.749-57.749L248.445,451.115z"/>
		</g>
	</g>
</g>
<g>
</g>
<g>
</g>
<g>
</g>
<g>
</g>
<g>
</g>
<g>
</g>
<g>
</g>
<g>
</g>
<g>
</g>
<g>
</g>
<g>
</g>
<g>
</g>
<g>
</g>
<g>
</g>
<g>
</g>
</svg>
